<mxfile host="app.diagrams.net" modified="2024-06-24T03:13:39.002Z" agent="Mozilla/5.0 (Windows NT 10.0; Win64; x64) AppleWebKit/537.36 (KHTML, like Gecko) Chrome/126.0.0.0 Safari/537.36" version="24.6.2" etag="GEt7Dj-lLv6kZ8OLzj7w" type="github">
  <diagram name="Page-1" id="zX77dCXvG3hDfC1kXTnO">
    <mxGraphModel>
      <root>
        <mxCell id="0" />
        <mxCell id="1" parent="0" />
      </root>
    </mxGraphModel>
  </diagram>
</mxfile>
